<svg width="16" height="19" viewBox="0 0 16 19" fill="none" xmlns="http://www.w3.org/2000/svg">
<path d="M1.375 5.9375V17.8125C1.375 18.4656 1.90938 19 2.5625 19H13.25C13.9031 19 14.4375 18.4656 14.4375 17.8125V5.9375H1.375ZM4.9375 16.625H3.75V8.3125H4.9375V16.625ZM7.3125 16.625H6.125V8.3125H7.3125V16.625ZM9.6875 16.625H8.5V8.3125H9.6875V16.625ZM12.0625 16.625H10.875V8.3125H12.0625V16.625Z" fill="#D0D0D0"/>
<path d="M14.7344 2.375H10.875V0.890625C10.8741 0.654705 10.7799 0.428716 10.6131 0.261894C10.4463 0.0950727 10.2203 0.000938061 9.98438 0L5.82812 0C5.59221 0.000938061 5.36622 0.0950727 5.19939 0.261894C5.03257 0.428716 4.93844 0.654705 4.9375 0.890625V2.375H1.07812C0.842109 2.37563 0.615939 2.46966 0.44905 2.63655C0.282162 2.80344 0.188127 3.02961 0.1875 3.26562V4.75H15.625V3.26562C15.6244 3.02961 15.5303 2.80344 15.3634 2.63655C15.1966 2.46966 14.9704 2.37563 14.7344 2.375ZM9.6875 2.375H6.125V1.20294H9.6875V2.375Z" fill="#D0D0D0"/>
</svg>
