<svg width="19" height="19" viewBox="0 0 19 19" fill="none" xmlns="http://www.w3.org/2000/svg">
<path d="M18.0015 13.9873C17.6792 13.6895 17.2056 13.6162 16.8003 13.5479C16.2388 13.4551 16.0239 13.3525 15.6968 13.0596C14.9985 12.4395 14.9985 11.541 15.6968 10.9209L17.1763 9.60742C19.4419 7.60547 19.4419 4.32422 17.1763 2.32227C15.5063 0.852539 13.2651 0.125 10.936 0.125C8.21631 0.125 5.37451 1.11621 3.18213 3.05957C-0.89502 6.66309 -0.89502 12.5664 3.18213 16.1699C5.2085 17.9619 7.94287 18.8555 10.648 18.875H10.731C13.436 18.875 16.1021 18.001 17.9966 16.3164C18.6997 15.6963 18.582 14.5293 18.0015 13.9873V13.9873Z" fill="#D0D0D0"/>
<path d="M4.03125 8.71875C4.8942 8.71875 5.59375 8.0192 5.59375 7.15625C5.59375 6.29331 4.8942 5.59375 4.03125 5.59375C3.16831 5.59375 2.46875 6.29331 2.46875 7.15625C2.46875 8.0192 3.16831 8.71875 4.03125 8.71875Z" fill="white"/>
<path d="M4.5 14C5.32843 14 6 13.3284 6 12.5C6 11.6716 5.32843 11 4.5 11C3.67157 11 3 11.6716 3 12.5C3 13.3284 3.67157 14 4.5 14Z" fill="white"/>
<path d="M7.875 5.46875C8.70343 5.46875 9.375 4.79718 9.375 3.96875C9.375 3.14032 8.70343 2.46875 7.875 2.46875C7.04657 2.46875 6.375 3.14032 6.375 3.96875C6.375 4.79718 7.04657 5.46875 7.875 5.46875Z" fill="white"/>
<path d="M9 17C10.1046 17 11 16.1046 11 15C11 13.8954 10.1046 13 9 13C7.89543 13 7 13.8954 7 15C7 16.1046 7.89543 17 9 17Z" fill="white"/>
<path d="M13 5C13.5523 5 14 4.55228 14 4C14 3.44772 13.5523 3 13 3C12.4477 3 12 3.44772 12 4C12 4.55228 12.4477 5 13 5Z" fill="white"/>
</svg>
