<svg width="96" height="23" viewBox="0 0 96 23" fill="none" xmlns="http://www.w3.org/2000/svg">
<path d="M7.32 3.61H0.12V0.999999H17.49V3.61H10.29V22H7.32V3.61ZM33.0827 16.75H21.9227L19.6127 22H16.5227L26.0327 0.999999H29.0027L38.5427 22H35.3927L33.0827 16.75ZM32.0327 14.35L27.5027 4.06L22.9727 14.35H32.0327ZM47.7954 22.24C46.2154 22.24 44.6854 22 43.2054 21.52C41.7454 21.02 40.5954 20.38 39.7554 19.6L40.8654 17.26C41.6654 17.98 42.6854 18.57 43.9254 19.03C45.1854 19.47 46.4754 19.69 47.7954 19.69C49.5354 19.69 50.8354 19.4 51.6954 18.82C52.5554 18.22 52.9854 17.43 52.9854 16.45C52.9854 15.73 52.7454 15.15 52.2654 14.71C51.8054 14.25 51.2254 13.9 50.5254 13.66C49.8454 13.42 48.8754 13.15 47.6154 12.85C46.0354 12.47 44.7554 12.09 43.7754 11.71C42.8154 11.33 41.9854 10.75 41.2854 9.97C40.6054 9.17 40.2654 8.1 40.2654 6.76C40.2654 5.64 40.5554 4.63 41.1354 3.73C41.7354 2.83 42.6354 2.11 43.8354 1.57C45.0354 1.03 46.5254 0.76 48.3054 0.76C49.5454 0.76 50.7654 0.92 51.9654 1.24C53.1654 1.56 54.1954 2.02 55.0554 2.62L54.0654 5.02C53.1854 4.46 52.2454 4.04 51.2454 3.76C50.2454 3.46 49.2654 3.31 48.3054 3.31C46.6054 3.31 45.3254 3.62 44.4654 4.24C43.6254 4.86 43.2054 5.66 43.2054 6.64C43.2054 7.36 43.4454 7.95 43.9254 8.41C44.4054 8.85 44.9954 9.2 45.6954 9.46C46.4154 9.7 47.3854 9.96 48.6054 10.24C50.1854 10.62 51.4554 11 52.4154 11.38C53.3754 11.76 54.1954 12.34 54.8754 13.12C55.5754 13.9 55.9254 14.95 55.9254 16.27C55.9254 17.37 55.6254 18.38 55.0254 19.3C54.4254 20.2 53.5154 20.92 52.2954 21.46C51.0754 21.98 49.5754 22.24 47.7954 22.24ZM67.1482 12.67L63.3082 16.57V22H60.3082V0.999999H63.3082V12.73L74.7082 0.999999H78.1282L69.1582 10.45L78.6982 22H75.1882L67.1482 12.67ZM87.5513 22.24C85.9713 22.24 84.4413 22 82.9613 21.52C81.5013 21.02 80.3513 20.38 79.5113 19.6L80.6213 17.26C81.4213 17.98 82.4413 18.57 83.6813 19.03C84.9413 19.47 86.2313 19.69 87.5513 19.69C89.2913 19.69 90.5913 19.4 91.4513 18.82C92.3113 18.22 92.7413 17.43 92.7413 16.45C92.7413 15.73 92.5013 15.15 92.0213 14.71C91.5613 14.25 90.9813 13.9 90.2813 13.66C89.6013 13.42 88.6313 13.15 87.3713 12.85C85.7913 12.47 84.5113 12.09 83.5313 11.71C82.5713 11.33 81.7413 10.75 81.0413 9.97C80.3613 9.17 80.0213 8.1 80.0213 6.76C80.0213 5.64 80.3113 4.63 80.8913 3.73C81.4913 2.83 82.3913 2.11 83.5913 1.57C84.7913 1.03 86.2813 0.76 88.0613 0.76C89.3013 0.76 90.5213 0.92 91.7213 1.24C92.9213 1.56 93.9513 2.02 94.8112 2.62L93.8213 5.02C92.9413 4.46 92.0013 4.04 91.0013 3.76C90.0013 3.46 89.0213 3.31 88.0613 3.31C86.3613 3.31 85.0813 3.62 84.2213 4.24C83.3813 4.86 82.9613 5.66 82.9613 6.64C82.9613 7.36 83.2013 7.95 83.6813 8.41C84.1613 8.85 84.7513 9.2 85.4513 9.46C86.1713 9.7 87.1413 9.96 88.3613 10.24C89.9413 10.62 91.2113 11 92.1713 11.38C93.1313 11.76 93.9513 12.34 94.6313 13.12C95.3313 13.9 95.6813 14.95 95.6813 16.27C95.6813 17.37 95.3813 18.38 94.7813 19.3C94.1813 20.2 93.2713 20.92 92.0513 21.46C90.8313 21.98 89.3313 22.24 87.5513 22.24Z" fill="#545865"/>
</svg>
