<?xml version="1.0" encoding="utf-8"?>
<!-- Generator: Adobe Illustrator 24.1.1, SVG Export Plug-In . SVG Version: 6.00 Build 0)  -->
<svg version="1.1" id="Слой_1" xmlns="http://www.w3.org/2000/svg" xmlns:xlink="http://www.w3.org/1999/xlink" x="0px" y="0px"
	 viewBox="0 0 34 43" style="enable-background:new 0 0 34 43;" xml:space="preserve">
<style type="text/css">
	.st0{fill:#757575;}
	.st1{fill:none;stroke:#757575;}
	.st2{fill:none;stroke:#757575;stroke-linecap:round;stroke-linejoin:round;}
	.st3{fill:none;stroke:#757575;stroke-linecap:round;}
</style>
<path class="st0" d="M20.6,11.3h7.7v17c0.5,0.1,1,0.4,1.4,0.6V10.5c0,0,0-0.1,0-0.1c0,0,0-0.1,0-0.1c0-0.1-0.1-0.2-0.2-0.3l-9.8-9.8
	C19.6,0.1,19.5,0,19.3,0c0,0-0.1,0-0.1,0H2.4C1.2,0,0.3,0.9,0.3,2.1v35.2c0,1.2,1,2.1,2.1,2.1h17.7c-0.2-0.4-0.4-0.9-0.5-1.4H2.4
	c-0.1,0-0.2,0-0.3-0.1c-0.1,0-0.2-0.1-0.2-0.2s-0.1-0.1-0.2-0.2c0-0.1-0.1-0.2-0.1-0.3V2.1c0-0.4,0.3-0.7,0.7-0.7h16.1v7.7
	C18.5,10.3,19.5,11.3,20.6,11.3z M19.9,2.4l7.4,7.4h-6.7c-0.2,0-0.4-0.1-0.5-0.2c-0.1-0.1-0.2-0.3-0.2-0.5V2.4z"/>
<path class="st0" d="M6.6,16.9h16.8c0.2,0,0.4-0.1,0.5-0.2c0.1-0.1,0.2-0.3,0.2-0.5c0-0.2-0.1-0.4-0.2-0.5c-0.1-0.1-0.3-0.2-0.5-0.2
	H6.6c-0.2,0-0.4,0.1-0.5,0.2C6,15.8,5.9,16,5.9,16.2c0,0.2,0.1,0.4,0.2,0.5C6.2,16.8,6.4,16.9,6.6,16.9z"/>
<path class="st0" d="M6.6,22.5h16.8c0.2,0,0.4-0.1,0.5-0.2c0.1-0.1,0.2-0.3,0.2-0.5s-0.1-0.4-0.2-0.5c-0.1-0.1-0.3-0.2-0.5-0.2H6.6
	c-0.2,0-0.4,0.1-0.5,0.2c-0.1,0.1-0.2,0.3-0.2,0.5s0.1,0.4,0.2,0.5C6.2,22.4,6.4,22.5,6.6,22.5z"/>
<path class="st0" d="M6.6,11.3h7c0.2,0,0.4-0.1,0.5-0.2c0.1-0.1,0.2-0.3,0.2-0.5c0-0.2-0.1-0.4-0.2-0.5c-0.1-0.1-0.3-0.2-0.5-0.2h-7
	c-0.2,0-0.4,0.1-0.5,0.2c-0.1,0.1-0.2,0.3-0.2,0.5c0,0.2,0.1,0.4,0.2,0.5C6.2,11.2,6.4,11.3,6.6,11.3z"/>
<path class="st0" d="M6.6,28.1h16.8c0.2,0,0.4-0.1,0.5-0.2c0.1-0.1,0.2-0.3,0.2-0.5s-0.1-0.4-0.2-0.5c-0.1-0.1-0.3-0.2-0.5-0.2H6.6
	c-0.2,0-0.4,0.1-0.5,0.2c-0.1,0.1-0.2,0.3-0.2,0.5s0.1,0.4,0.2,0.5C6.2,28.1,6.4,28.1,6.6,28.1z"/>
<path class="st0" d="M19.4,32.3H6.6c-0.2,0-0.4,0.1-0.5,0.2S5.9,32.9,5.9,33c0,0.2,0.1,0.4,0.2,0.5c0.1,0.1,0.3,0.2,0.5,0.2h12.3
	C19,33.3,19.2,32.8,19.4,32.3z"/>
<path class="st1" d="M33.3,35.2c0,4-3.3,7.3-7.4,7.3s-7.4-3.3-7.4-7.3c0-4,3.3-7.3,7.4-7.3S33.3,31.2,33.3,35.2z"/>
<path class="st2" d="M26,32v5.9"/>
<path class="st3" d="M23,35h6"/>
</svg>
