<svg width="392" height="155" viewBox="0 0 392 155" fill="none" xmlns="http://www.w3.org/2000/svg">
<path d="M196.277 155C304.198 155 391.685 149.219 391.685 142.089C391.685 134.958 304.198 129.178 196.277 129.178C88.3561 129.178 0.868896 134.958 0.868896 142.089C0.868896 149.219 88.3561 155 196.277 155Z" fill="white"/>
<path d="M188.788 0.746338C156.95 0.746338 134.091 21.1323 134.091 68.6995C134.091 122.609 156.95 136.879 188.788 136.879C220.625 136.879 244.845 121.25 244.845 68.6995C244.845 12.5249 220.625 0.746338 188.788 0.746338ZM188.997 118.985C166.946 118.985 155.425 106.073 155.425 68.7343C155.425 35.7882 167.417 18.4142 189.468 18.4142C211.52 18.4142 223.512 29.8265 223.512 68.7343C223.512 105.132 211.048 118.985 188.997 118.985Z" fill="#2F2E41"/>
<path d="M115.027 99.2785H101.864V60.5915C101.864 58.5367 101.046 56.5661 99.5901 55.1131C98.1343 53.6601 96.1598 52.8438 94.1009 52.8438H91.0165C89.997 52.8438 88.9875 53.0442 88.0457 53.4336C87.1039 53.8229 86.2481 54.3936 85.5272 55.1131C84.8064 55.8325 84.2346 56.6866 83.8444 57.6266C83.4543 58.5666 83.2535 59.5741 83.2535 60.5915V99.2785H46.1241C45.3603 99.2785 44.6094 99.0814 43.9443 98.7065C43.2793 98.3315 42.7226 97.7914 42.3284 97.1384C41.9341 96.4855 41.7156 95.742 41.6941 94.9799C41.6726 94.2179 41.8489 93.4632 42.2057 92.7892L81.5031 18.5574C81.993 17.6319 82.29 16.6169 82.376 15.5737C82.4621 14.5305 82.3354 13.4808 82.0038 12.4878C81.6721 11.4948 81.1423 10.5791 80.4462 9.79616C79.7502 9.01318 78.9024 8.37906 77.9541 7.93211L75.6343 6.83879C73.833 5.98984 71.7736 5.86448 69.8823 6.48866C67.9909 7.11284 66.4124 8.43878 65.4733 10.1921L17.545 99.6756C16.7288 101.199 16.3018 102.901 16.3018 104.628V104.628C16.3018 106.008 16.5741 107.374 17.1031 108.649C17.6321 109.923 18.4075 111.082 19.3849 112.057C20.3624 113.033 21.5228 113.807 22.8 114.334C24.0771 114.862 25.4459 115.134 26.8282 115.134H83.2535V139.597C83.2535 140.817 83.4942 142.025 83.9618 143.151C84.4295 144.278 85.1149 145.302 85.9789 146.164C86.843 147.027 87.8688 147.711 88.9977 148.177C90.1267 148.644 91.3367 148.884 92.5587 148.884H92.5587C93.7806 148.884 94.9906 148.644 96.1196 148.177C97.2485 147.711 98.2743 147.027 99.1384 146.164C100.002 145.302 100.688 144.278 101.155 143.151C101.623 142.025 101.864 140.817 101.864 139.597V115.134H115.027C117.134 115.134 119.154 114.299 120.644 112.812C122.134 111.325 122.971 109.309 122.971 107.206V107.206C122.971 105.104 122.134 103.087 120.644 101.6C119.154 100.114 117.134 99.2785 115.027 99.2785V99.2785Z" fill="#1D7BFE"/>
<path d="M358.777 99.2785H345.614V60.5915C345.614 58.5367 344.796 56.5661 343.34 55.1131C341.884 53.6601 339.909 52.8438 337.851 52.8438H334.766C333.747 52.8438 332.737 53.0442 331.795 53.4336C330.854 53.8229 329.998 54.3936 329.277 55.1131C328.556 55.8325 327.984 56.6866 327.594 57.6266C327.204 58.5666 327.003 59.5741 327.003 60.5915V99.2785H289.874C289.11 99.2785 288.359 99.0814 287.694 98.7065C287.029 98.3315 286.472 97.7914 286.078 97.1384C285.684 96.4855 285.465 95.742 285.444 94.9799C285.422 94.2179 285.599 93.4632 285.955 92.7892L325.253 18.5574C325.743 17.6319 326.04 16.6169 326.126 15.5737C326.212 14.5305 326.085 13.4808 325.753 12.4878C325.422 11.4948 324.892 10.5791 324.196 9.79616C323.5 9.01318 322.652 8.37906 321.704 7.93211L319.384 6.83879C317.583 5.98984 315.523 5.86448 313.632 6.48866C311.741 7.11284 310.162 8.43878 309.223 10.1921L261.295 99.6756C260.479 101.199 260.052 102.901 260.052 104.628V104.628C260.052 107.415 261.161 110.087 263.135 112.057C265.109 114.027 267.786 115.134 270.578 115.134H327.003V139.597C327.003 142.06 327.984 144.423 329.729 146.164C331.474 147.906 333.84 148.884 336.308 148.884V148.884C338.776 148.884 341.143 147.906 342.888 146.164C344.633 144.423 345.613 142.06 345.613 139.597V115.134H358.777C360.884 115.134 362.904 114.299 364.394 112.812C365.883 111.325 366.72 109.309 366.72 107.206V107.206C366.72 105.104 365.883 103.087 364.394 101.6C362.904 100.114 360.884 99.2785 358.777 99.2785Z" fill="#1D7BFE"/>
<path d="M174.163 65.1162C177.641 65.1162 180.46 61.4745 180.46 56.9824C180.46 52.4902 177.641 48.8486 174.163 48.8486C170.685 48.8486 167.865 52.4902 167.865 56.9824C167.865 61.4745 170.685 65.1162 174.163 65.1162Z" fill="#2F2E41"/>
<path d="M208.429 65.301C211.907 65.301 214.726 61.6594 214.726 57.1672C214.726 52.6751 211.907 49.0334 208.429 49.0334C204.95 49.0334 202.131 52.6751 202.131 57.1672C202.131 61.6594 204.95 65.301 208.429 65.301Z" fill="#2F2E41"/>
<path d="M203.613 81.1987C203.613 84.8737 198.471 87.8536 192.129 87.8536C185.787 87.8536 180.645 84.8737 180.645 81.1987C180.645 78.0154 184.502 75.3535 189.655 74.7028C190.475 74.5948 191.302 74.5417 192.129 74.5438C193.516 74.5393 194.898 74.6881 196.252 74.9875C200.557 75.945 203.613 78.3667 203.613 81.1987Z" fill="#2F2E41"/>
<path d="M196.389 75.5421C196.392 76.007 196.217 76.4555 195.9 76.7962C195.75 76.9593 195.568 77.0898 195.366 77.1794C195.163 77.269 194.944 77.3157 194.722 77.3167H191.018C190.561 77.3009 190.13 77.1053 189.817 76.7727C189.505 76.4402 189.337 75.9977 189.351 75.5421C189.349 75.1816 189.455 74.8288 189.655 74.5286C190.474 74.4134 191.301 74.3567 192.129 74.359C193.517 74.3544 194.901 74.5133 196.252 74.8322C196.344 75.0577 196.39 75.2988 196.389 75.5421V75.5421Z" fill="white"/>
<path d="M175.644 54.7641C176.667 54.7641 177.497 53.9364 177.497 52.9155C177.497 51.8945 176.667 51.0669 175.644 51.0669C174.621 51.0669 173.792 51.8945 173.792 52.9155C173.792 53.9364 174.621 54.7641 175.644 54.7641Z" fill="white"/>
<path d="M210.095 54.7641C211.118 54.7641 211.948 53.9364 211.948 52.9155C211.948 51.8945 211.118 51.0669 210.095 51.0669C209.073 51.0669 208.243 51.8945 208.243 52.9155C208.243 53.9364 209.073 54.7641 210.095 54.7641Z" fill="white"/>
<path opacity="0.3" d="M211.948 72.1408C212.971 72.1408 213.8 71.3131 213.8 70.2922C213.8 69.2712 212.971 68.4436 211.948 68.4436C210.925 68.4436 210.095 69.2712 210.095 70.2922C210.095 71.3131 210.925 72.1408 211.948 72.1408Z" fill="#1D7BFE"/>
<path opacity="0.3" d="M166.754 72.1408C167.777 72.1408 168.606 71.3131 168.606 70.2922C168.606 69.2712 167.777 68.4436 166.754 68.4436C165.731 68.4436 164.902 69.2712 164.902 70.2922C164.902 71.3131 165.731 72.1408 166.754 72.1408Z" fill="#1D7BFE"/>
</svg>
