<svg width="19" height="19" viewBox="0 0 19 19" fill="none" xmlns="http://www.w3.org/2000/svg">
<path d="M5.707 17.7069L15 8.41388L10.586 3.99988L1.293 13.2929C1.16506 13.421 1.07418 13.5813 1.03 13.7569L0 18.9999L5.242 17.9699C5.418 17.9259 5.579 17.8349 5.707 17.7069ZM18 5.41388C18.3749 5.03882 18.5856 4.53021 18.5856 3.99988C18.5856 3.46955 18.3749 2.96093 18 2.58588L16.414 0.99988C16.0389 0.624937 15.5303 0.414307 15 0.414307C14.4697 0.414307 13.9611 0.624937 13.586 0.99988L12 2.58588L16.414 6.99988L18 5.41388Z" fill="#D0D0D0"/>
</svg>
