<svg width="48" height="45" viewBox="0 0 48 45" fill="none" xmlns="http://www.w3.org/2000/svg">
<g clip-path="url(#clip0)">
<path d="M2.29136 39.375H27.5124C28.6719 39.375 29.6155 38.4286 29.6155 37.2656V10.5469C29.6155 10.5145 29.6015 10.4864 29.5973 10.4555C29.5934 10.426 29.5873 10.3968 29.5791 10.3683C29.5516 10.2484 29.4925 10.1382 29.408 10.0491L19.5947 0.206719C19.4835 0.101361 19.3414 0.0347835 19.1895 0.016875C19.16 0.0140625 19.132 0 19.0997 0H2.28295C1.11921 0 0.171387 0.946406 0.171387 2.10938V37.2656C0.171387 38.4286 1.12201 39.375 2.29136 39.375ZM19.8008 2.40047L27.2221 9.84375H20.5018C20.3159 9.84375 20.1376 9.76967 20.0061 9.63781C19.8747 9.50595 19.8008 9.32711 19.8008 9.14062V2.40047ZM1.57349 2.10938C1.57349 1.72125 1.89176 1.40625 2.28295 1.40625H18.3987V9.14062C18.3987 10.3036 19.3423 11.25 20.5018 11.25H28.2134V37.2656C28.2134 37.4521 28.1395 37.6309 28.0081 37.7628C27.8766 37.8947 27.6983 37.9688 27.5124 37.9688H2.29136C2.19819 37.9699 2.10572 37.9526 2.01922 37.9178C1.93271 37.8831 1.85388 37.8316 1.78722 37.7663C1.72056 37.701 1.66737 37.6232 1.6307 37.5373C1.59403 37.4514 1.57459 37.3591 1.57349 37.2656V2.10938Z" fill="#757575"/>
<path d="M6.48084 16.875H23.306C23.492 16.875 23.6703 16.8009 23.8018 16.6691C23.9332 16.5372 24.0071 16.3584 24.0071 16.1719C24.0071 15.9854 23.9332 15.8066 23.8018 15.6747C23.6703 15.5428 23.492 15.4688 23.306 15.4688H6.48084C6.29491 15.4688 6.11659 15.5428 5.98512 15.6747C5.85365 15.8066 5.77979 15.9854 5.77979 16.1719C5.77979 16.3584 5.85365 16.5372 5.98512 16.6691C6.11659 16.8009 6.29491 16.875 6.48084 16.875Z" fill="#757575"/>
<path d="M6.48084 22.5H23.306C23.492 22.5 23.6703 22.4259 23.8018 22.2941C23.9332 22.1622 24.0071 21.9834 24.0071 21.7969C24.0071 21.6104 23.9332 21.4316 23.8018 21.2997C23.6703 21.1678 23.492 21.0938 23.306 21.0938H6.48084C6.29491 21.0938 6.11659 21.1678 5.98512 21.2997C5.85365 21.4316 5.77979 21.6104 5.77979 21.7969C5.77979 21.9834 5.85365 22.1622 5.98512 22.2941C6.11659 22.4259 6.29491 22.5 6.48084 22.5Z" fill="#757575"/>
<path d="M6.48084 11.25H13.4913C13.6773 11.25 13.8556 11.1759 13.9871 11.0441C14.1185 10.9122 14.1924 10.7334 14.1924 10.5469C14.1924 10.3604 14.1185 10.1816 13.9871 10.0497C13.8556 9.91783 13.6773 9.84375 13.4913 9.84375H6.48084C6.29491 9.84375 6.11659 9.91783 5.98512 10.0497C5.85365 10.1816 5.77979 10.3604 5.77979 10.5469C5.77979 10.7334 5.85365 10.9122 5.98512 11.0441C6.11659 11.1759 6.29491 11.25 6.48084 11.25Z" fill="#757575"/>
<path d="M6.48084 28.125H23.306C23.492 28.125 23.6703 28.0509 23.8018 27.9191C23.9332 27.7872 24.0071 27.6084 24.0071 27.4219C24.0071 27.2354 23.9332 27.0566 23.8018 26.9247C23.6703 26.7928 23.492 26.7188 23.306 26.7188H6.48084C6.29491 26.7188 6.11659 26.7928 5.98512 26.9247C5.85365 27.0566 5.77979 27.2354 5.77979 27.4219C5.77979 27.6084 5.85365 27.7872 5.98512 27.9191C6.11659 28.0509 6.29491 28.125 6.48084 28.125Z" fill="#757575"/>
<path d="M6.48084 33.75H23.306C23.492 33.75 23.6703 33.6759 23.8018 33.5441C23.9332 33.4122 24.0071 33.2334 24.0071 33.0469C24.0071 32.8604 23.9332 32.6816 23.8018 32.5497C23.6703 32.4178 23.492 32.3438 23.306 32.3438H6.48084C6.29491 32.3438 6.11659 32.4178 5.98512 32.5497C5.85365 32.6816 5.77979 32.8604 5.77979 33.0469C5.77979 33.2334 5.85365 33.4122 5.98512 33.5441C6.11659 33.6759 6.29491 33.75 6.48084 33.75Z" fill="#757575"/>
<path d="M30.3165 7.03125H36.626V14.7656C36.626 15.9286 37.5696 16.875 38.7291 16.875H46.4407V42.8906C46.4407 43.0771 46.3668 43.2559 46.2354 43.3878C46.1039 43.5197 45.9256 43.5938 45.7396 43.5938H20.5187C20.4255 43.5949 20.333 43.5776 20.2465 43.5428C20.16 43.5081 20.0812 43.4566 20.0145 43.3913C19.9479 43.326 19.8947 43.2482 19.858 43.1623C19.8213 43.0764 19.8019 42.9841 19.8008 42.8906V41.4844C19.8008 41.2979 19.7269 41.1191 19.5954 40.9872C19.464 40.8553 19.2857 40.7812 19.0997 40.7812C18.9138 40.7812 18.7355 40.8553 18.604 40.9872C18.4725 41.1191 18.3987 41.2979 18.3987 41.4844V42.8906C18.3987 44.0536 19.3493 45 20.5187 45H45.7396C46.8992 45 47.8428 44.0536 47.8428 42.8906V16.1719C47.8428 16.1395 47.8288 16.1114 47.8246 16.0805C47.8207 16.051 47.8146 16.0218 47.8063 15.9933C47.7789 15.8734 47.7198 15.7632 47.6353 15.6741L37.822 5.83172C37.7115 5.72549 37.569 5.65918 37.4168 5.64328C37.3873 5.63906 37.3593 5.625 37.327 5.625H30.3165C30.1306 5.625 29.9523 5.69908 29.8208 5.83094C29.6893 5.9628 29.6155 6.14164 29.6155 6.32812C29.6155 6.51461 29.6893 6.69345 29.8208 6.82531C29.9523 6.95717 30.1306 7.03125 30.3165 7.03125ZM38.7291 15.4688C38.5432 15.4688 38.3649 15.3947 38.2334 15.2628C38.1019 15.1309 38.0281 14.9521 38.0281 14.7656V8.02547L45.4494 15.4688H38.7291Z" fill="#757575"/>
<path d="M33.1207 22.5H41.5333C41.7193 22.5 41.8976 22.4259 42.0291 22.2941C42.1605 22.1622 42.2344 21.9834 42.2344 21.7969C42.2344 21.6104 42.1605 21.4316 42.0291 21.2997C41.8976 21.1678 41.7193 21.0938 41.5333 21.0938H33.1207C32.9348 21.0938 32.7565 21.1678 32.625 21.2997C32.4935 21.4316 32.4197 21.6104 32.4197 21.7969C32.4197 21.9834 32.4935 22.1622 32.625 22.2941C32.7565 22.4259 32.9348 22.5 33.1207 22.5Z" fill="#757575"/>
<path d="M33.1207 28.125H41.5333C41.7193 28.125 41.8976 28.0509 42.0291 27.9191C42.1605 27.7872 42.2344 27.6084 42.2344 27.4219C42.2344 27.2354 42.1605 27.0566 42.0291 26.9247C41.8976 26.7928 41.7193 26.7188 41.5333 26.7188H33.1207C32.9348 26.7188 32.7565 26.7928 32.625 26.9247C32.4935 27.0566 32.4197 27.2354 32.4197 27.4219C32.4197 27.6084 32.4935 27.7872 32.625 27.9191C32.7565 28.0509 32.9348 28.125 33.1207 28.125Z" fill="#757575"/>
<path d="M33.1207 33.75H41.5333C41.7193 33.75 41.8976 33.6759 42.0291 33.5441C42.1605 33.4122 42.2344 33.2334 42.2344 33.0469C42.2344 32.8604 42.1605 32.6816 42.0291 32.5497C41.8976 32.4178 41.7193 32.3438 41.5333 32.3438H33.1207C32.9348 32.3438 32.7565 32.4178 32.625 32.5497C32.4935 32.6816 32.4197 32.8604 32.4197 33.0469C32.4197 33.2334 32.4935 33.4122 32.625 33.5441C32.7565 33.6759 32.9348 33.75 33.1207 33.75Z" fill="#757575"/>
<path d="M33.1207 39.375H41.5333C41.7193 39.375 41.8976 39.3009 42.0291 39.1691C42.1605 39.0372 42.2344 38.8584 42.2344 38.6719C42.2344 38.4854 42.1605 38.3066 42.0291 38.1747C41.8976 38.0428 41.7193 37.9688 41.5333 37.9688H33.1207C32.9348 37.9688 32.7565 38.0428 32.625 38.1747C32.4935 38.3066 32.4197 38.4854 32.4197 38.6719C32.4197 38.8584 32.4935 39.0372 32.625 39.1691C32.7565 39.3009 32.9348 39.375 33.1207 39.375Z" fill="#757575"/>
</g>
<defs>
<clipPath id="clip0">
<rect width="47.6714" height="45" fill="white" transform="translate(0.171387)"/>
</clipPath>
</defs>
</svg>
