<svg width="37" height="44" viewBox="0 0 37 44" fill="none" xmlns="http://www.w3.org/2000/svg">
<path d="M29.6399 32.955H27.8362V28.98H29.6399V32.955ZM29.6399 43.98H27.8362V40.005H29.6399V43.98ZM32.3302 37.365V35.595H36.3809V37.365H32.3302ZM21.0952 35.595H25.1459V37.365H21.0952V35.595ZM25.5586 34.605L22.7002 31.8L23.9689 30.555L26.8274 33.36L25.5586 34.605ZM33.5072 42.405L30.6488 39.6L31.9175 38.355L34.7759 41.16L33.5072 42.405ZM23.9689 42.405L22.7002 41.16L25.5586 38.355L26.8274 39.6L23.9689 42.405Z" fill="#757575"/>
<path d="M2.84416 39.375H28.1836C29.3485 39.375 30.2966 38.4286 30.2966 37.2656V10.5469C30.2966 10.5145 30.2825 10.4864 30.2783 10.4555C30.2743 10.426 30.2682 10.3968 30.26 10.3683C30.2324 10.2484 30.173 10.1382 30.0881 10.0491L20.2287 0.206719C20.117 0.101361 19.9742 0.0347835 19.8216 0.016875C19.792 0.0140625 19.7639 0 19.7315 0H2.83571C1.6665 0 0.714233 0.946406 0.714233 2.10938V37.2656C0.714233 38.4286 1.66932 39.375 2.84416 39.375ZM20.4358 2.40047L27.892 9.84375H21.1401C20.9533 9.84375 20.7742 9.76967 20.6421 9.63781C20.51 9.50595 20.4358 9.32711 20.4358 9.14062V2.40047ZM2.12292 2.10938C2.12292 1.72125 2.44269 1.40625 2.83571 1.40625H19.0271V9.14062C19.0271 10.3036 19.9752 11.25 21.1401 11.25H28.8879V37.2656C28.8879 37.4521 28.8137 37.6309 28.6816 37.7628C28.5495 37.8947 28.3704 37.9688 28.1836 37.9688H2.84416C2.75056 37.9699 2.65765 37.9526 2.57074 37.9178C2.48383 37.8831 2.40463 37.8316 2.33765 37.7663C2.27068 37.701 2.21724 37.6232 2.1804 37.5373C2.14355 37.4514 2.12402 37.3591 2.12292 37.2656V2.10938Z" fill="#757575"/>
<path d="M7.05334 16.875H23.9575C24.1443 16.875 24.3235 16.8009 24.4556 16.6691C24.5877 16.5372 24.6619 16.3584 24.6619 16.1719C24.6619 15.9854 24.5877 15.8066 24.4556 15.6747C24.3235 15.5428 24.1443 15.4688 23.9575 15.4688H7.05334C6.86654 15.4688 6.68739 15.5428 6.5553 15.6747C6.42321 15.8066 6.349 15.9854 6.349 16.1719C6.349 16.3584 6.42321 16.5372 6.5553 16.6691C6.68739 16.8009 6.86654 16.875 7.05334 16.875V16.875Z" fill="#757575"/>
<path d="M7.05334 22.5H23.9575C24.1443 22.5 24.3235 22.4259 24.4556 22.2941C24.5877 22.1622 24.6619 21.9834 24.6619 21.7969C24.6619 21.6104 24.5877 21.4316 24.4556 21.2997C24.3235 21.1678 24.1443 21.0938 23.9575 21.0938H7.05334C6.86654 21.0938 6.68739 21.1678 6.5553 21.2997C6.42321 21.4316 6.349 21.6104 6.349 21.7969C6.349 21.9834 6.42321 22.1622 6.5553 22.2941C6.68739 22.4259 6.86654 22.5 7.05334 22.5V22.5Z" fill="#757575"/>
<path d="M7.05334 11.25H14.0968C14.2836 11.25 14.4627 11.1759 14.5948 11.0441C14.7269 10.9122 14.8011 10.7334 14.8011 10.5469C14.8011 10.3604 14.7269 10.1816 14.5948 10.0497C14.4627 9.91783 14.2836 9.84375 14.0968 9.84375H7.05334C6.86654 9.84375 6.68739 9.91783 6.5553 10.0497C6.42321 10.1816 6.349 10.3604 6.349 10.5469C6.349 10.7334 6.42321 10.9122 6.5553 11.0441C6.68739 11.1759 6.86654 11.25 7.05334 11.25V11.25Z" fill="#757575"/>
<path d="M7.05334 28.125H23.9575C24.1443 28.125 24.3235 28.0509 24.4556 27.9191C24.5877 27.7872 24.6619 27.6084 24.6619 27.4219C24.6619 27.2354 24.5877 27.0566 24.4556 26.9247C24.3235 26.7928 24.1443 26.7188 23.9575 26.7188H7.05334C6.86654 26.7188 6.68739 26.7928 6.5553 26.9247C6.42321 27.0566 6.349 27.2354 6.349 27.4219C6.349 27.6084 6.42321 27.7872 6.5553 27.9191C6.68739 28.0509 6.86654 28.125 7.05334 28.125V28.125Z" fill="#757575"/>
<path d="M7.05334 33.75H23.9575C24.1443 33.75 24.3235 33.6759 24.4556 33.5441C24.5877 33.4122 24.6619 33.2334 24.6619 33.0469C24.6619 32.8604 24.5877 32.6816 24.4556 32.5497C24.3235 32.4178 24.1443 32.3438 23.9575 32.3438H7.05334C6.86654 32.3438 6.68739 32.4178 6.5553 32.5497C6.42321 32.6816 6.349 32.8604 6.349 33.0469C6.349 33.2334 6.42321 33.4122 6.5553 33.5441C6.68739 33.6759 6.86654 33.75 7.05334 33.75V33.75Z" fill="#757575"/>
</svg>
