<svg width="28" height="8" viewBox="0 0 28 8" fill="none" xmlns="http://www.w3.org/2000/svg">
<path d="M21 4C21 3.07174 21.3688 2.1815 22.0251 1.52513C22.6815 0.86875 23.5717 0.5 24.5 0.5C25.4283 0.5 26.3185 0.86875 26.9749 1.52513C27.6312 2.1815 28 3.07174 28 4C28 4.92826 27.6312 5.8185 26.9749 6.47487C26.3185 7.13125 25.4283 7.5 24.5 7.5C23.5717 7.5 22.6815 7.13125 22.0251 6.47487C21.3688 5.8185 21 4.92826 21 4ZM10.5 4C10.5 3.07174 10.8688 2.1815 11.5251 1.52513C12.1815 0.86875 13.0717 0.5 14 0.5C14.9283 0.5 15.8185 0.86875 16.4749 1.52513C17.1312 2.1815 17.5 3.07174 17.5 4C17.5 4.92826 17.1312 5.8185 16.4749 6.47487C15.8185 7.13125 14.9283 7.5 14 7.5C13.0717 7.5 12.1815 7.13125 11.5251 6.47487C10.8688 5.8185 10.5 4.92826 10.5 4ZM0 4C0 3.07174 0.368749 2.1815 1.02513 1.52513C1.6815 0.86875 2.57174 0.5 3.5 0.5C4.42826 0.5 5.3185 0.86875 5.97487 1.52513C6.63125 2.1815 7 3.07174 7 4C7 4.92826 6.63125 5.8185 5.97487 6.47487C5.3185 7.13125 4.42826 7.5 3.5 7.5C2.57174 7.5 1.6815 7.13125 1.02513 6.47487C0.368749 5.8185 0 4.92826 0 4V4ZM3.5 2.25C3.03587 2.25 2.59075 2.43437 2.26256 2.76256C1.93437 3.09075 1.75 3.53587 1.75 4C1.75 4.46413 1.93437 4.90925 2.26256 5.23744C2.59075 5.56562 3.03587 5.75 3.5 5.75C3.96413 5.75 4.40925 5.56562 4.73744 5.23744C5.06562 4.90925 5.25 4.46413 5.25 4C5.25 3.53587 5.06562 3.09075 4.73744 2.76256C4.40925 2.43437 3.96413 2.25 3.5 2.25ZM14 2.25C13.5359 2.25 13.0908 2.43437 12.7626 2.76256C12.4344 3.09075 12.25 3.53587 12.25 4C12.25 4.46413 12.4344 4.90925 12.7626 5.23744C13.0908 5.56562 13.5359 5.75 14 5.75C14.4641 5.75 14.9092 5.56562 15.2374 5.23744C15.5656 4.90925 15.75 4.46413 15.75 4C15.75 3.53587 15.5656 3.09075 15.2374 2.76256C14.9092 2.43437 14.4641 2.25 14 2.25ZM24.5 2.25C24.0359 2.25 23.5908 2.43437 23.2626 2.76256C22.9344 3.09075 22.75 3.53587 22.75 4C22.75 4.46413 22.9344 4.90925 23.2626 5.23744C23.5908 5.56562 24.0359 5.75 24.5 5.75C24.9641 5.75 25.4092 5.56562 25.7374 5.23744C26.0656 4.90925 26.25 4.46413 26.25 4C26.25 3.53587 26.0656 3.09075 25.7374 2.76256C25.4092 2.43437 24.9641 2.25 24.5 2.25Z" fill="#D5DBE8"/>
</svg>
